<svg xmlns="http://www.w3.org/2000/svg" viewBox="0 0 512 512" role="img" aria-labelledby="t d">
<title id="t">GDR GharDekho Renters</title><desc id="d">Gold house outline with a green rental search symbol and keyhole.</desc>
<defs>
 <linearGradient id="gold" x1="0" y1="0" x2="1" y2="1"><stop stop-color="#f5d98c"/><stop offset=".48" stop-color="#b77a24"/><stop offset="1" stop-color="#f0cf78"/></linearGradient>
 <radialGradient id="green"><stop stop-color="#4be59c"/><stop offset=".55" stop-color="#138a5b"/><stop offset="1" stop-color="#064d38"/></radialGradient>
 <filter id="shadow" x="-30%" y="-30%" width="160%" height="160%"><feDropShadow dx="0" dy="9" stdDeviation="10" flood-opacity=".24"/></filter>
</defs>
<path d="M82 232 256 66l174 166" fill="none" stroke="url(#gold)" stroke-width="28" stroke-linecap="round" stroke-linejoin="round" filter="url(#shadow)"/>
<path d="M111 218v215h290V218" fill="none" stroke="url(#gold)" stroke-width="25" stroke-linecap="round"/>
<path d="M342 129V74h54v105" fill="none" stroke="url(#gold)" stroke-width="25" stroke-linejoin="round"/>
<circle cx="257" cy="244" r="108" fill="#111b19" stroke="url(#gold)" stroke-width="23" filter="url(#shadow)"/>
<circle cx="257" cy="244" r="82" fill="url(#green)" stroke="#9be6c0" stroke-opacity=".55" stroke-width="4"/>
<path d="M257 201c-21 0-38 17-38 38 0 12 5 22 13 29l-12 54h74l-12-54c8-7 13-17 13-29 0-21-17-38-38-38Z" fill="none" stroke="url(#gold)" stroke-width="12" stroke-linejoin="round"/>
<path d="M327 314 423 410" fill="none" stroke="url(#gold)" stroke-width="31" stroke-linecap="round"/>
<path d="M423 410l27-27" fill="none" stroke="url(#gold)" stroke-width="31" stroke-linecap="round"/>
</svg>